<svg xmlns="http://www.w3.org/2000/svg" viewBox="0 0 1024 1024" width="1024" height="1024">
  <defs>
    <radialGradient id="bg" cx="50%" cy="35%" r="70%">
      <stop offset="0%" stop-color="#2a1550"/>
      <stop offset="60%" stop-color="#140a2e"/>
      <stop offset="100%" stop-color="#0a0519"/>
    </radialGradient>
    <radialGradient id="bodyGrad" cx="50%" cy="30%" r="70%">
      <stop offset="0%" stop-color="#d4ffe5"/>
      <stop offset="35%" stop-color="#6fffb0"/>
      <stop offset="70%" stop-color="#1fd678"/>
      <stop offset="100%" stop-color="#0aaa58"/>
    </radialGradient>
    <linearGradient id="earGrad" x1="0%" y1="0%" x2="0%" y2="100%">
      <stop offset="0%" stop-color="#ffc4dd"/>
      <stop offset="100%" stop-color="#ff6fa8"/>
    </linearGradient>
    <linearGradient id="earInner" x1="0%" y1="0%" x2="0%" y2="100%">
      <stop offset="0%" stop-color="#ffa8c8"/>
      <stop offset="100%" stop-color="#d84784"/>
    </linearGradient>
    <filter id="glow" x="-30%" y="-30%" width="160%" height="160%">
      <feGaussianBlur stdDeviation="18" result="blur"/>
      <feMerge>
        <feMergeNode in="blur"/>
        <feMergeNode in="SourceGraphic"/>
      </feMerge>
    </filter>
  </defs>
  <rect width="1024" height="1024" fill="url(#bg)"/>
  <ellipse cx="512" cy="480" rx="360" ry="320" fill="#4dff9f" opacity="0.25" filter="url(#glow)"/>
  <circle cx="180" cy="220" r="6" fill="#4dff9f" opacity="0.7"/>
  <circle cx="880" cy="260" r="8" fill="#a47bff" opacity="0.7"/>
  <circle cx="820" cy="720" r="7" fill="#ff9f6b" opacity="0.7"/>
  <circle cx="160" cy="780" r="6" fill="#ff6fa8" opacity="0.7"/>
  <circle cx="280" cy="140" r="4" fill="#ffdc5e" opacity="0.7"/>
  <circle cx="760" cy="160" r="5" fill="#5fc8ff" opacity="0.7"/>
  <g transform="translate(512 540) scale(1.15)">
    <g transform="translate(-180 -240)">
      <ellipse cx="0" cy="0" rx="76" ry="100" fill="url(#earGrad)" transform="rotate(-24)"/>
      <ellipse cx="4" cy="14" rx="42" ry="64" fill="url(#earInner)" transform="rotate(-24)"/>
    </g>
    <g transform="translate(180 -240)">
      <ellipse cx="0" cy="0" rx="76" ry="100" fill="url(#earGrad)" transform="rotate(24)"/>
      <ellipse cx="-4" cy="14" rx="42" ry="64" fill="url(#earInner)" transform="rotate(24)"/>
    </g>
    <g filter="url(#glow)">
      <path d="M -310 -50 C -310 -260, -170 -340, 0 -340 C 170 -340, 310 -260, 310 -50 C 310 180, 200 280, 0 280 C -200 280, -310 180, -310 -50 Z" fill="url(#bodyGrad)"/>
    </g>
    <ellipse cx="-100" cy="-40" rx="60" ry="74" fill="#fff"/>
    <ellipse cx="100" cy="-40" rx="60" ry="74" fill="#fff"/>
    <ellipse cx="-95" cy="-20" rx="28" ry="38" fill="#0d0420"/>
    <ellipse cx="105" cy="-20" rx="28" ry="38" fill="#0d0420"/>
    <circle cx="-85" cy="-40" r="10" fill="#fff"/>
    <circle cx="115" cy="-40" r="10" fill="#fff"/>
    <circle cx="-105" cy="-5" r="5" fill="#fff" opacity="0.7"/>
    <circle cx="95" cy="-5" r="5" fill="#fff" opacity="0.7"/>
    <path d="M -22 80 Q 0 66 22 80 Q 0 100 -22 80 Z" fill="#ff6fa8" stroke="#d84784" stroke-width="3"/>
    <circle cx="0" cy="78" r="5" fill="#fff" opacity="0.6"/>
    <g stroke="#ffffff" stroke-width="4" stroke-linecap="round" opacity="0.8" fill="none">
      <path d="M -55 120 Q -140 115 -180 100"/>
      <path d="M -50 140 Q -140 145 -185 140"/>
      <path d="M 55 120 Q 140 115 180 100"/>
      <path d="M 50 140 Q 140 145 185 140"/>
    </g>
    <path d="M -60 175 Q 0 205 60 180" stroke="#0d0420" stroke-width="8" fill="none" stroke-linecap="round"/>
    <rect x="-8" y="182" width="10" height="14" fill="#fff" rx="1.5"/>
  </g>
</svg>
